<?xml version="1.0" standalone="no"?><!DOCTYPE svg PUBLIC "-//W3C//DTD SVG 1.1//EN" "http://www.w3.org/Graphics/SVG/1.1/DTD/svg11.dtd"><svg class="icon" width="200px" height="200.00px" viewBox="0 0 1024 1024" version="1.1" xmlns="http://www.w3.org/2000/svg"><path fill="#314659" d="M0 511.425306C0 229.459592 229.407347 0 511.435755 0c281.976163 0 511.425306 229.459592 511.425306 511.425306 0 281.986612-229.449143 511.44098-511.425306 511.44098C229.407347 1022.866286 0 793.406694 0 511.430531z m410.524735 33.227755h122.164245c0-28.687673-13.547102-45.494857-13.547102-45.494857H413.126531c2.518204-51.968 4.775184-118.669061 5.579755-143.443592h100.848326s-0.548571-42.626612-11.765551-42.626612h-177.266939s10.673633-55.740082 24.894694-80.342204c0 0-52.924082-2.857796-70.985143 67.636245-18.055837 70.494041-45.139592 113.120653-48.013061 120.905143-2.868245 7.78449 15.595102 3.68849 23.390041 0 7.800163-3.68849 43.086367-16.394449 53.342041-65.572572h54.815347c0.736653 31.164082 2.910041 126.683429 2.225632 143.443592H257.353143c-16.002612 11.47298-21.336816 45.494857-21.336816 45.494857h128.971755c-5.381224 35.568327-14.821878 81.423673-28.029388 105.733225-20.924082 38.525388-32.010449 73.769796-107.509551 134.431347 0 0-12.308898 9.017469 25.850775 5.736489 38.159673-3.275755 74.271347-13.113469 99.301878-63.111836 13.00898-25.997061 26.467265-58.974041 36.963265-92.421225l-0.036571 0.125388 106.276571 122.211265s13.949388-32.783673 3.693715-68.853551l-78.785307-88.116245-26.665796 19.701551-0.031346 0.099266c7.408327-25.944816 12.732082-51.586612 14.388244-73.900408l0.120164-1.635266z m148.020245-244.694204V724.636735h44.658938l18.290939 51.121632 77.400816-51.121632h97.546449V299.958857H558.550204z m191.252898 378.514286h-50.677551l-63.216327 41.848163-14.936816-41.848163h-15.77796V346.148571h144.608654v332.314123z"  /></svg>